<svg xmlns="http://www.w3.org/2000/svg" width="32" height="32" viewBox="219.93131466079572 116.06998828551168 110.13737067840859 129.6065835786303"><defs><linearGradient x1="163.04124" y1="235" x2="386.95876" y2="235" gradientUnits="userSpaceOnUse" id="color-1283819016123393"><stop offset="0" stop-color="#eacda3"></stop><stop offset="1" stop-color="#d6ae7b"></stop></linearGradient></defs><g data-paper-data="{&quot;isIcon&quot;:&quot;true&quot;,&quot;iconType&quot;:&quot;icon&quot;,&quot;rawIconId&quot;:&quot;jEFtJsvt4b9JK920HgXjjFhkddXOqdxQCaXl0hMplX&quot;,&quot;source&quot;:&quot;ai&quot;,&quot;selectedEffects&quot;:{&quot;container&quot;:&quot;&quot;,&quot;transformation&quot;:&quot;&quot;,&quot;pattern&quot;:&quot;&quot;},&quot;isDetailed&quot;:false,&quot;iconStyle&quot;:&quot;standalone&quot;,&quot;bounds&quot;:{&quot;x&quot;:219.93131466079572,&quot;y&quot;:116.06998828551168,&quot;width&quot;:110.13737067840859,&quot;height&quot;:129.6065835786303},&quot;fillRule&quot;:&quot;evenodd&quot;,&quot;suitableAsStandaloneIcon&quot;:true}" fill-rule="evenodd" fill="url(#color-1283819016123393)"><g data-paper-data="{&quot;isPathIcon&quot;:true}"><path d="M225.6509,116.59023c-2.05101,0.649 -4.14901,2.50201 -5.02201,4.43401l-0.615,1.362l-0.068,37.5431c-0.038,20.64805 0.001,37.5421 0.086,37.5421c0.085,0 1.337,-0.914 2.78201,-2.03301c9.13802,-7.07002 16.61804,-9.95603 25.76107,-9.93703c7.68102,0.015 13.42204,1.814 22.40506,7.02202c4.63601,2.68701 7.36802,3.96501 10.28103,4.80901c9.15602,2.65301 18.09105,0.436 27.11007,-6.72602c2.63401,-2.09101 6.63002,-6.13602 6.63002,-6.71002c0,-0.169 -1.468,-2.62101 -3.26201,-5.44901c-1.795,-2.82801 -4.19701,-6.65502 -5.33801,-8.50302c-2.52601,-4.08801 -2.81901,-4.43001 -4.45301,-5.20101c-2.83101,-1.335 -5.70702,-0.373 -7.43002,2.48701c-2.01101,3.33801 -5.73202,8.78802 -6.00002,8.78802c-0.398,0 -9.42803,-13.68204 -17.56805,-26.62207c-2.66301,-4.23201 -3.02401,-4.65201 -4.67001,-5.43901c-2.09101,-0.999 -5.48901,-0.354 -7.02202,1.334c-0.307,0.339 -4.03901,6.14002 -8.29202,12.89303c-10.04803,15.95204 -12.84203,20.34305 -15.54404,24.42507l-2.22401,3.36001l-0.163,-1.809c-0.09,-0.995 -0.177,-13.88304 -0.195,-28.63908l-0.032,-26.83107l18.28705,0.095c20.00405,0.105 20.30905,0.124 26.76207,1.746c17.03505,4.27901 31.40508,17.36005 36.6281,33.34109c0.958,2.93301 1.98601,7.58002 2.31501,10.46603c0.343,3.01501 0.345,11.81703 0.002,14.54804l-0.267,2.12801l-2.12401,2.03901c-5.63202,5.40501 -10.41603,8.52202 -15.89804,10.35903c-6.15002,2.06101 -12.56803,2.06001 -18.72005,-0.001c-2.73901,-0.918 -4.47301,-1.776 -8.88202,-4.39601c-7.06902,-4.20001 -11.63503,-5.95602 -17.81305,-6.84702c-10.44603,-1.508 -20.12405,1.804 -30.75808,10.52403l-2.32601,1.90701v34.87409l0.718,1.463c0.862,1.754 2.32201,3.13601 4.29101,4.05901l1.452,0.681l20.93606,-0.001c22.18506,-0.002 23.01306,-0.039 29.33708,-1.318c18.32505,-3.70701 34.24709,-14.36004 43.42212,-29.05108c5.11901,-8.19802 8.22002,-16.87804 9.46403,-26.49307c0.582,-4.50601 0.579,-12.61903 -0.007,-16.80104c-2.16601,-15.44604 -9.23502,-28.97908 -20.27505,-38.8171c-11.23003,-10.00703 -24.37106,-15.54004 -40.10011,-16.88304c-1.635,-0.14 -11.75403,-0.248 -22.48706,-0.242c-18.65105,0.012 -19.58505,0.035 -21.11406,0.52zM245.26395,204.71146c-6.73802,0.942 -13.23804,5.26701 -17.26105,11.48803l-0.494,0.764l1.163,-0.712c5.71502,-3.49801 10.45903,-4.99201 16.67204,-5.25001c7.36602,-0.305 12.15903,1.141 22.67706,6.84502c5.66602,3.07201 8.46802,4.32601 11.85303,5.30301c4.89801,1.414 10.48103,1.568 13.69804,0.377c2.55201,-0.945 5.22801,-2.85301 8.18202,-5.83502c1.458,-1.471 2.65001,-2.77001 2.65001,-2.88701c0,-0.118 -0.669,0.056 -1.486,0.386c-4.34001,1.75 -9.32402,2.70001 -14.16304,2.70001c-7.20602,0 -13.83904,-1.92601 -20.55205,-5.97002c-7.38702,-4.44901 -9.98903,-5.67302 -14.18704,-6.67602c-2.56701,-0.613 -6.47602,-0.851 -8.75202,-0.533zM243.52995,223.93551c-3.40301,0.554 -5.53401,1.437 -8.94902,3.70801l-1.773,1.179v4.06001h18.10805c12.34003,0 18.05605,-0.085 17.94405,-0.266c-0.09,-0.146 -1.231,-0.802 -2.53401,-1.456c-1.304,-0.655 -3.47501,-1.89301 -4.82501,-2.75301c-1.35,-0.859 -3.31401,-1.95901 -4.36401,-2.44401c-4.07201,-1.88101 -9.52203,-2.69401 -13.60704,-2.02801z"></path></g></g></svg>